{"title":"The.Big.Short.DvDscr.480p.MICRO-REPACK","uid":13149605,"size":611493484,"categoryP":"video","categoryS":"movies","magnet":"?xt=urn:btih:ccae648c8ed9b837e0f51780ea73013d4eae2285&amp;dn=The.Big.Short.DvDscr.480p.MICRO-REPACK&amp;tr=udp%3A%2F%2Ftracker.leechers-paradise.org%3A6969&amp;tr=udp%3A%2F%2Fzer0day.ch%3A1337&amp;tr=udp%3A%2F%2Fopen.demonii.com%3A1337&amp;tr=udp%3A%2F%2Ftracker.coppersurfer.tk%3A6969&amp;tr=udp%3A%2F%2Fexodus.desync.com%3A6969","seeders":0,"leechers":0,"uploader":"mr98321","files":2,"time":1452042597,"description":"MICRO-REPACK\r\n\r\n\r\nGeneral\r\nFormat                                   : MPEG-4\r\nFormat profile                           : Base Media / Version 2\r\nCodec ID                                 : mp42 (isom/iso2/avc1/mp41)\r\nFile size                                : 583 MiB\r\nDuration                                 : 2h 10mn\r\nOverall bit rate mode                    : Variable\r\nOverall bit rate                         : 626 Kbps\r\n\r\n\r\nVideo\r\nID                                       : 1\r\nFormat                                   : AVC\r\nFormat/Info                              : Advanced Video Codec\r\nFormat profile                           :   \r\nFormat settings, CABAC                   : Yes\r\nFormat settings, ReFrames                : 16 frames\r\nCodec ID                                 : avc1\r\nCodec ID/Info                            : Advanced Video Coding\r\nDuration                                 : 2h 10mn\r\nBit rate                                 : 460 Kbps\r\nWidth                                    : 720 pixels\r\nHeight                                   : 288 pixels\r\nDisplay aspect ratio                     : 2.500\r\nFrame rate mode                          : Constant\r\nFrame rate                               : 29.970 (30000/1001) fps\r\nColor space                              : YUV\r\nChroma subsampling                       : 4:2:0\r\nBit depth                                : 8 bits\r\nScan type                                : Progressive\r\nBits/(Pixel*Frame)                       : 0.074\r\nStream size                              : 428 MiB (73%)\r\n\r\n\r\nAudio\r\nID                                       : 2\r\nFormat                                   : AAC\r\nFormat/Info                              : Advanced Audio Codec\r\nFormat profile                           : LC\r\nCodec ID                                 : 40\r\nDuration                                 : 2h 10mn\r\nBit rate mode                            : Variable\r\nBit rate                                 : 160 Kbps\r\nChannel(s)                               : 2 channels\r\nChannel positions                        : Front: L R\r\nSampling rate                            : 48.0 KHz\r\nFrame rate                               : 46.875 fps (1024 spf)\r\nCompression mode                         : Lossy\r\nStream size                              : 149 MiB (26%)\r\nTitle                                    : Stereo / Stereo","torrent":{"xt":"urn:btih:ccae648c8ed9b837e0f51780ea73013d4eae2285","amp;dn":"The.Big.Short.DvDscr.480p.MICRO-REPACK","amp;tr":["udp%3A%2F%2Ftracker.leechers-paradise.org%3A6969","udp%3A%2F%2Fzer0day.ch%3A1337","udp%3A%2F%2Fopen.demonii.com%3A1337","udp%3A%2F%2Ftracker.coppersurfer.tk%3A6969","udp%3A%2F%2Fexodus.desync.com%3A6969"],"infoHash":"ccae648c8ed9b837e0f51780ea73013d4eae2285","infoHashBuffer":{"type":"Buffer","data":[204,174,100,140,142,217,184,55,224,245,23,128,234,115,1,61,78,174,34,133]},"announce":[],"urlList":[]}}